<svg xmlns="http://www.w3.org/2000/svg" viewBox="0 0 512 512"><path fill="#e4b9c4" d="M67.7 485.8c-12.9 0-40.5-9.8-50-21.9-5.1-6.6-4.7-12.7-3.9-15.8 11-45.5 3.7-90.9-4.1-139l-5.5-36.4c-6.4-46.9-9.6-108 22.4-164 22.7-39.9 66.2-82.5 120.2-82.5a112.2 112.2 0 0 1 15.2 1.1c59.4 8.8 103.3 51.3 109.3 105.7 3.2 29.2-3.9 55.9-14.1 79.6a609.6 609.6 0 0 1 101.4-25.9 167.5 167.5 0 0 1 26.1-2c42.4 0 99.4 15.9 120.4 60.8 29 61.7-40.5 118.7-77.9 149.3-45.5 37.2-96 57.4-160.1 64.4-17.1 1.8-34.2 3-51.3 4.1-39.4 2.6-76.6 5-113 16a28.4 28.4 0 0 1-8.4 1.2h0a44.5 44.5 0 0 1-11.9-1.9c-2.1 3.3-6.3 7.2-14.8 7.2zM181.6 73.1c-2.8 0-11.2 1-29.5 10-28.2 14-47 39.5-57.8 58.4C61.7 198.7 71 259.3 80.9 323.4c5 32.8 10.2 66.5 9.5 100.3 28.3-5 57.1-7 85-8.8L224 411c64.1-6.6 116.6-31.2 165.2-77.2l2-1.9c19.5-18.5 41.6-39.4 47.5-64.6 2.5-11 2-25.3-4.7-32.6-1.6-1.7-5.8-2.7-11.4-2.7-8.1 0-17.5 1.9-25 3.5l-4.6 1c-61.9 12.2-125.4 34.8-188.7 67.2a18.2 18.2 0 0 1-8.6 1.9c-12.3 0-44.2-11.4-52.1-24.6a15.9 15.9 0 0 1-.7-15.9c5.1-9.5 10.8-19.1 16.5-28.9 25.7-43.8 52.2-89 37.2-136.6-7.5-23.7-13.5-26.3-13.6-26.4z"/></svg>