<svg xmlns="http://www.w3.org/2000/svg" viewBox="0 0 512 512"><path fill="#fff" d="M0 0h512v512H0z"/><path fill="#e4b9c4" d="M79.4 471.4c-12.1 0-37.9-9.2-46.8-20.5-4.8-6.2-4.4-11.9-3.7-14.8 10.4-42.7 3.5-85.3-3.8-130.3l-5.2-34.1c-6-44-9-101.3 21-153.8C62.2 80.5 103 40.6 153.6 40.6a99.2 99.2 0 0 1 14.3 1c55.7 8.3 96.8 48.1 102.4 99 3 27.5-3.6 52.5-13.1 74.7a577.1 577.1 0 0 1 95-24.3 159.1 159.1 0 0 1 24.4-1.8c39.8 0 93.2 14.9 113 57 27.1 57.8-38.1 111.2-73.1 139.9-42.6 34.9-90 53.8-150.1 60.4-16 1.7-32 2.8-48.1 3.8-36.9 2.5-71.8 4.7-106 15a24.5 24.5 0 0 1-7.8 1.1h0a43 43 0 0 1-11.2-1.7c-1.9 3.1-5.8 6.7-13.9 6.7zM186.3 84.6c-2.6 0-10.6.9-27.7 9.3-26.4 13.1-44 37-54.1 54.7-30.7 53.7-21.9 110.5-12.7 170.6 4.7 30.7 9.6 62.3 8.9 94 26.6-4.7 53.6-6.5 79.7-8.3l45.6-3.6c60.1-6.2 109.3-29.2 154.8-72.3l2-1.9c18.3-17.2 39-36.8 44.5-60.5 2.3-10.3 1.9-23.7-4.4-30.5-1.6-1.7-5.5-2.6-10.7-2.6-7.6 0-16.4 1.8-23.4 3.3l-4.3.9c-58.1 11.5-117.6 32.7-177 63.1a18.1 18.1 0 0 1-8 1.7c-11.6 0-41.5-10.7-48.9-23a14.9 14.9 0 0 1-.6-15c4.8-8.9 10.1-17.9 15.4-27.1 24.1-41 49-83.4 34.9-128-7-22.2-12.7-24.7-12.7-24.7z"/></svg>