<svg xmlns="http://www.w3.org/2000/svg" viewBox="0 0 173 23"><path fill="#002453" d="M.495 3.218C.495 2.853.371 1.584 0 1.01V.92h13.554l.249 3.658h-.092c-.371-1.753-1.854-2.45-4.481-2.45H3.46v8.254h5.986c.525 0 2.935-.092 3.152-.483h.092v2.932h-.092c-.124-1.149-2.566-1.179-3.43-1.179H3.46v7.651c0 .514.091 2.691.834 2.691v.091H.495V3.218zm31.567 10.186l-3.679-8.866-3.648 8.866h7.326zm-12.738 8.681l1.49-3.168L28.809 0h.729l7.144 17.18c.577 1.402 1.915 4.569 2.887 4.814v.091h-3.921l-3.07-7.401h-8.359l-2.035 4.934c-.305.731-.518 1.401-.518 1.827 0 .274.06.457.303.548v.091h-2.645zM46.931 0h.526l15.292 16.169V3.014c0-.472-.03-2.542-.584-2.631V.295h2.076v18.089c0 .71 0 1.863.174 2.781h-.584l-15.409-16.2v13.302c0 .563.03 2.542.586 2.631v.089h-2.077V0zm33.968 3.853c0-1.483-.8-1.724-2.458-1.724-2.274 0-4.333.484-4.731 2.662h-.093L73.772.92h17.177l.152 3.871h-.091c-.37-2.177-2.43-2.662-4.735-2.662-1.659 0-2.427.241-2.427 1.724v15.481c0 .513.091 2.66.799 2.66v.091h-3.749V3.853zm27.54 9.551l-3.679-8.866-3.645 8.866h7.324zm-12.736 8.681l1.489-3.168L105.185 0h.729l7.144 17.18c.576 1.402 1.915 4.569 2.889 4.814v.091h-3.923l-3.07-7.401h-8.359l-2.035 4.934c-.305.731-.518 1.401-.518 1.827 0 .274.063.457.304.548v.091h-2.643zm26.689-3.416a7.42 7.42 0 0 0 5.188 2.108c2.375 0 4.482-1.038 4.482-3.741 0-2.553-1.963-3.802-4.044-5.018-2.401-1.396-4.95-2.881-4.95-6.118 0-3.294 2.665-5.285 6.535-5.285 1.436 0 3.104.268 4.396.772l.174 4.216h-.088c-.674-2.285-2.313-3.8-4.806-3.8-2.139 0-3.692 1.187-3.692 3.326 0 2.405 2.021 3.594 4.19 4.87 2.492 1.426 5.011 2.94 5.011 6.385 0 3.832-3.016 5.704-6.622 5.704-3.195 0-5.071-1.576-6.068-3.119l.293-.297zm22.51-15.451c0-.364-.108-1.633-.429-2.207V.92h2.987v18.383c0 .514.083 2.691.694 2.691v.091h-3.252V3.218zm13.867 0c0-.364-.121-1.633-.492-2.207V.92h13.491l.248 3.628h-.095c-.305-1.663-1.846-2.42-4.527-2.42h-5.664v8.255h5.911c.676 0 3.082-.059 3.296-.483h.091v2.902h-.091c-.154-1.12-2.652-1.18-3.73-1.18h-5.477v8.285c0 .846.922.906 2.125.906h4.341c3.173 0 4.191-.785 4.714-2.45h.09l-.215 3.72h-14.017V3.218z"/></svg>