<svg xmlns="http://www.w3.org/2000/svg" viewBox="0 0 528 84.7"><path d="M.1,21.7l19-.2A22.6,22.6,0,0,1,38.9,33.8L57.3,70c3.6,7.4,8.1,11.8,15.2,14.5.4.1.4.3,0,.3s-13.3.1-16.9,0A25.7,25.7,0,0,1,32.7,71.7L12.6,32.4A22.4,22.4,0,0,0,.2,21.8c.1.1-.4-.1-.1-.1M18.9.3H34.3A26.4,26.4,0,0,1,58,14.3L87.9,73.4c3.6,7,9.4,9.8,15.4,9.9.7,0,.8.1,0,.2s-14.9,1.1-17.4,1.3c-9.9.6-19.8-4.2-25.4-15.1L31,11.6A22.3,22.3,0,0,0,18.8.6c-.5-.2-.4-.3.1-.3" transform="translate(0 -0.2)" fill="#a52a56"/><path d="M75.8,42.7,88.7,68.1l27.8-55.8A23.1,23.1,0,0,1,129.6.6c.4-.2.5-.3-.1-.3H113.3A26.5,26.5,0,0,0,90,14.2L75.8,42.7M90.4,71.6l1.8,3.3a12.6,12.6,0,0,0,22-.6l20.5-40.7c3.3-6.6,7.5-9.6,13.1-11.8.5-.2.8-.3,0-.3H131.1c-10.3-.1-17.9,4.7-22.1,12.7L90.4,71.6" transform="translate(0 -0.2)" fill="#ca7c8d"/><path d="M509.8,1h7.7c3.9,0,6.3,1.6,6.3,6.1l.2,69c0,4.8,1.5,6,3.5,7s.7.5,0,.5h-7c-4,0-6.9-1-7-6.2l-.2-70.3a6.5,6.5,0,0,0-3.5-5.6c-.6-.2-.8-.5.1-.5" transform="translate(0 -0.2)" fill="#a52a56"/><path d="M412.3,16.5h0c-27.8.1-31.1,19.7-31.4,32.6,0,9-.4,35.7,30.5,35.7,18.3,0,31-7.3,31-34.5C442.4,41.9,441.6,17.1,412.3,16.5Zm-.9,61.8c-17.5,0-18.5-14.3-18.5-27,0-16.8,2.8-28.1,18.5-28.1,10.5,0,19.2,3.7,19.2,27.2C430.6,75.8,421.4,78.3,411.4,78.3Z" transform="translate(0 -0.2)" fill="#a52a56"/><path d="M376.3,23.5H358.8c-11.1,0-13,10-13,26.4,0,20.5,3,26.9,14.8,26.9h16.8c1.6,0,6.1-.1,6.1,5.8,0,.5,0,.6-.7.6H359.5c-15.8,0-25.4-6.4-25.4-33.4,0-24.6,8.5-32.9,24.5-32.9h23c1,0,1,0,.9.9-.5,5-2.4,5.6-6.2,5.6" transform="translate(0 -0.2)" fill="#a52a56"/><path d="M451.7,17h33.1c10.1,0,15.9,3.1,15.9,17V82.9c0,.5,0,.6-.5.6H466.8c-11.2,0-17.9-4.8-17.9-20.4,0-13.9,4.9-17.9,12.4-20.5l24-8c.9-.3,1.1-.1,1.1.7a17.2,17.2,0,0,1-.5,3.5,5,5,0,0,1-3.6,3.6l-13.5,4.8c-5.6,2-7.8,5.5-8.1,10.9a58,58,0,0,0,.3,10.2c.5,4.5,2.3,8,9.3,8.6s9,.5,13.1,0,6.5-2.2,6.5-8V32.7c0-5.9-2.1-9.1-10.1-9.1H455.5c-1.8,0-3.5-.7-4.2-3.7s-.6-2.9.4-2.9" transform="translate(0 -0.2)" fill="#a52a56"/><path d="M274.3,16.7h33.1c10.1,0,15.9,3,15.9,16.9V82.6c0,.4,0,.6-.5.6H289.4c-11.2,0-17.9-4.8-17.9-20.5,0-13.9,4.9-17.8,12.4-20.4l24-8c.9-.3,1.1-.1,1.1.7a15.5,15.5,0,0,1-.5,3.4,4.9,4.9,0,0,1-3.6,3.7l-13.5,4.8c-5.6,2-7.8,5.5-8.1,10.9a58,58,0,0,0,.3,10.2c.5,4.5,2.3,8,9.3,8.6a55.7,55.7,0,0,0,13.1,0c4.1-.5,6.5-2.2,6.5-8V32.4c0-5.9-2.1-9.2-10.1-9.2H278.1c-1.8,0-3.5-.6-4.2-3.6s-.6-2.9.4-2.9" transform="translate(0 -0.2)" fill="#a52a56"/><path d="M164.9.2h8.2c4.7,0,7.7,1.8,7.7,8.4V62.3c0,9,2.9,13,9.7,13.6s6.6.6,9.1.2c7.3-1.3,9.6-4.8,9.6-14.2V8.2c0-3.3-1.2-6.3-4.3-7.3-1.3-.5-.1-.6.6-.6h7.4c3,0,7.7,1.2,7.7,8V61.8c0,10.3,3.4,13.9,11.6,14.6,5.3.4,10.6,0,13.7-2.6s3.1-4.5,3.1-10.5l-.2-54.8c0-4.4-2.4-6.7-4.7-7.4s-.3-.6.4-.6h7.8c4.7,0,7.8,2.4,7.8,8.1l.2,56.5c0,11.7-7.8,18.1-19,18.1H188.8a18.3,18.3,0,0,1-19.3-17.3,6.7,6.7,0,0,1,0-2V7.9c0-2.7-1.2-6.4-4.6-7.3-1.3-.3-.2-.4,0-.4" transform="translate(0 -0.2)" fill="#a52a56"/></svg>