<svg xmlns="http://www.w3.org/2000/svg" viewBox="0 0 512 328.2"><path fill="#fff" d="M0 0h512v328.23H0z"/><g fill="#e4b9c4"><path d="M246.8 150a2.6 2.6 0 0 1-1.7-.7c-.2-.2-.2-.4-.1-.5a12 12 0 0 0-.2-4.6 5.9 5.9 0 0 0-.2-1.3 8.2 8.2 0 0 1 .8-5.4 4.8 4.8 0 0 1 4-2.8h.5a3.9 3.9 0 0 1 3.6 3.5 4.5 4.5 0 0 1-.4 2.6 20.9 20.9 0 0 1 3.4-.8h.8c1.4 0 3.3.5 4 2s-1.3 4-2.6 5a9.7 9.7 0 0 1-5.3 2.2h-1.7a23.2 23.2 0 0 0-3.8.5h-.6zm3.8-13.7a2.1 2.1 0 0 0-1 .3 4 4 0 0 0-1.9 2c-1.1 1.9-.8 3.9-.5 6a19.5 19.5 0 0 1 .3 3.4 14.3 14.3 0 0 1 2.9-.3h1.6a9.7 9.7 0 0 0 5.5-2.6h0a4.6 4.6 0 0 0 1.6-2.1 1.3 1.3 0 0 0-.1-1.1h-1.4a22.9 22.9 0 0 0-6.3 2.3h-.3a2.5 2.5 0 0 1-1.7-.8.5.5 0 0 1 0-.5l.5-1c.9-1.4 1.8-2.9 1.3-4.5s-.5-.9-.5-.9zm50.2 68.3l-4.3 3c-4.4 3.2-9 6.2-14.6 7.1-2.4.4-5 .9-6.5-1.6s-.3-4.9 1.4-6.8 4.3-5 7-6.6a52.7 52.7 0 0 0 12.3-10.3l25-28.4a28.7 28.7 0 0 0 2.3-3.9c-2.7-1.3-4.6-.4-6.5.7a51.4 51.4 0 0 0-13.7 11.3c-1.1 1.2-2.1 2.8-3.5 3.6-3.2 2-3.2 5-2.8 8.2.2 1.5.9 3-.8 4.4s-4.6-2.2-5.6-4.4-1.2-5.3-1.7-8-.2-3-.4-5.4a35.7 35.7 0 0 0-2.8 2.8 139.9 139.9 0 0 1-23.9 23.5 50.5 50.5 0 0 1-16.4 8.6c-10 3-19.7-4.5-20.3-15.7-.1-2.3.6-4.7-.9-7.3a23.8 23.8 0 0 0-2.2 1.8c-6.8 7.1-13.8 14-22.6 18.6a45.3 45.3 0 0 1-19.1 5.1c-5.8.3-10.4-2.3-13.8-7a31.7 31.7 0 0 1-6.3-19.7c.1-3.9 0-7.8 0-12.4-1.3 1-2.1 1.4-2.7 2-12.2 12.1-25.8 21.9-41.8 28.4-12 4.9-24.4 7.5-37.3 5.2-19.1-3.4-29.7-19.4-27.2-37.8A76.1 76.1 0 0 1 72 119.8c13.2-13.7 29.2-22.1 48.6-22.7l5.6-.6c-.4-1.6-.6-2.8-1-3.9-3.9-10-1.8-19 5.5-26.7 9.5-10 21.4-15 35.1-15.2 9.2-.1 16.5 3.2 20.9 11.7 1.9 3.7 1.7 7.5 1 11.2-1.2 5.5-4.3 10-8.4 13.8a16.9 16.9 0 0 1-2.3 1.1c-.1-1.1-.5-2-.2-2.5s1.8-2.8 2.5-4.3c1.9-3.8 4.1-7.6 5.4-11.6 2.3-7.2-3-13.8-10.5-14.1s-13.6 2.5-19.5 6.2c-8.6 5.5-15.6 12.5-19.5 22.1a25.1 25.1 0 0 0-1.5 7.7 8 8 0 0 0 3.2 7.2 16 16 0 0 1 1.6 1.9c-1.5 1.9-3.4 1.6-5.1 1.5a50.7 50.7 0 0 0-26.2 5.6 78.3 78.3 0 0 0-26.4 22.1c-4.8 6.2-9.3 12.6-11.8 19.9-3.4 9.8-6 19.7-3.3 30.1a26 26 0 0 0 9.6 14.7 18.2 18.2 0 0 0 10.6 3.8c13.3.6 25.1-3.7 36.5-9.7a129.8 129.8 0 0 0 35.3-27.2 26.8 26.8 0 0 0 6-10 146.3 146.3 0 0 1 29.4-53c7.7-8.7 16.2-16.4 27.1-20.7 3.7-1.5 8.1-1.6 12.2-1.5 7.4.2 10.2 7.7 9 13.1-1.8 8.8-6.4 16.1-11.8 23.1a182.7 182.7 0 0 1-38.4 36.6c-3.3 2.3-6.8 4.4-10.1 6.7a7.5 7.5 0 0 0-2.7 3.2c-3.1 8.7-6 17.6-7.3 26.8-.6 4.7-.2 9.2 3.4 12.7a8.3 8.3 0 0 0 5.2 2.5c8.9 0 17.2-2.3 24.1-8.3 5.3-4.7 10.4-9.8 15.6-14.8s6.9-8.7 9.5-13.7a61.4 61.4 0 0 1 6-9.3c3.3-4.1 9.4-3.5 12.5.9 1.3 1.9.6 3.6-.2 5.4l-9.6 20.8a41.8 41.8 0 0 0-3.2 10.8c-.6 5.8 3.1 8.3 8.7 6.7s13-5.9 18.4-10.6c10.9-9.6 20-20.8 28.3-32.6a39.1 39.1 0 0 1 5.7-5.8c1.8-1.6 3.9-1.9 6.6.1a23.7 23.7 0 0 1-.5 4.2c-.7 2.1-1.7 4.2-2.5 6.3s-.3 2-.5 3l.6.5 3-2.2 13.1-9.2a5.6 5.6 0 0 1 1.6-.7c4.5-1.2 9-2.2 12.8 1.6s4.4 8.9 2.8 14a34 34 0 0 1-8.5 13.9c-3.6 3.8-7.3 7.5-11 11.2l-3.4 3.6c.9 4.3 2 7.8 2.2 11.4s-.5 7.2-.8 11.6a28.2 28.2 0 0 0 3.3-2.1c14-11.3 27.6-23.1 39-37.1 2-2.4 3.3-5.5 4.7-8.4 5.3-11.5 12.3-21.2 25-25.3 4.2-1.4 8.5-2.5 13-1.8a14.6 14.6 0 0 1 10.2 6l3.1-2.6c2.1-1.7 4.2-3.5 6.4-5.1s3.6-.8 5.3.5a3.9 3.9 0 0 1 1.2 5.1c-1.2 2.6-2.8 5-4.2 7.5l-15.8 28c-1.8 3.4-3.2 7.2-2.7 11.3.1.6.4 1.1.5 1.6 2 2.2 4.4 1.9 6.8 1.4 7-1.6 13-5.3 18.7-9.5 12.5-9.2 22.6-20.7 31.6-33.3a24.4 24.4 0 0 1 2.7-2.9c2.3 1.6 1.4 3.1.7 4.4s-2.2 3.4-3.4 5c-9.9 13.1-21.1 24.7-35.2 33.2a76.6 76.6 0 0 1-13 6c-9.1 3-16.9-2.3-17.7-11.9-.2-2.5-.1-5-.1-7.5s-.1-2.3-.2-4.3l-3.6 2.9c-5.3 4.7-10.4 9.6-17 12.4s-10.4 1.2-13.6-4.8a13.6 13.6 0 0 0-1.2-1.8 20.5 20.5 0 0 0-2.6 2.4c-11.6 13.4-25.4 24.2-39.5 34.5a21.4 21.4 0 0 0-7.6 9.2c-4.3 10.1-9.1 20-15.8 28.8a47.1 47.1 0 0 1-14.7 13.4 18.4 18.4 0 0 1-5.7 2c-3.6.6-6.2-1.7-6.5-5.4a15.4 15.4 0 0 1 3.3-10.4c3.8-5.1 7.5-10.5 12.3-14.7a65.1 65.1 0 0 0 17.3-25.1l5.1-13.3a17.6 17.6 0 0 0 .7-3.3zm-64-121.3a33.7 33.7 0 0 0-3.4.9c-8.7 3.8-15.2 10.5-21.4 17.4-11.6 12.8-19.9 27.6-27.5 42.9-.6 1.2-.9 2.6-1.4 3.8l.8.6c1.1-.6 2.4-1.2 3.5-1.9a183.4 183.4 0 0 0 34.9-32.1c6.3-7.5 11.7-15.6 15-25 .8-2 1.3-4-.5-6.6zm126.9 107.1c3.7 1.1 4.6 1 7.7-1.1 11.5-7.6 20.6-17.7 28.9-28.5a13.4 13.4 0 0 0 2.4-6.2c.5-4.1-2.5-6.4-6.4-4.9a30 30 0 0 0-7.5 4c-10.8 8.1-18.2 19-23.8 31.2-.7 1.6-.8 3.5-1.3 5.5zm-95.2 81.8c4.8-6.6 8.1-13.1 11.7-20.3-6.7 4.5-12.9 14.9-11.7 20.3z"/><path d="M258.5 146.7c1.1-.9 3.3-2.7 2.5-4.5s-3-2-4.5-1.7a16.6 16.6 0 0 0-4.2 1.2 5.9 5.9 0 0 0 .8-3.4 3.5 3.5 0 0 0-3.3-3.1c-1.7-.3-3.2 1-4.1 2.5a8.4 8.4 0 0 0-.7 5.2c.3 2 .8 4 .4 6-.1.4 1.5.9 1.5.7v-.3a1.1 1.1 0 0 0 .8.1 34.3 34.3 0 0 1 5.6-.6 10 10 0 0 0 5.2-2.1zM252 148a27.2 27.2 0 0 0-4.9.5c.3-3.4-1.6-6.9.2-10.1a4.7 4.7 0 0 1 2.1-2.1 1.1 1.1 0 0 1 2 .8c.7 2.1-.8 4-1.8 5.8-.1.3 1.3.8 1.5.7a28.7 28.7 0 0 1 6.4-2.3c.5-.1 1.4-.3 1.8.1a1.9 1.9 0 0 1 .2 1.5 5.6 5.6 0 0 1-1.7 2.4 10.4 10.4 0 0 1-5.8 2.7zM65.1 220.2h1.4v8.6h5.3v1.2h-6.7zm18.3 8.6v1.2h-7.2v-9.8h7v1.2h-5.6v3h5v1.2h-5v3.2zm13.5-8.6v9.8h-1.2l-5.9-7.3v7.3h-1.4v-9.8h1.2l5.9 7.3v-7.3zm5 4.9a4.9 4.9 0 0 1 5.2-5 4.8 4.8 0 0 1 3.7 1.5l-.9.9a3.8 3.8 0 1 0 0 5.2l.9.9a4.8 4.8 0 0 1-3.7 1.5 4.9 4.9 0 0 1-5.2-5zm20.9 3.7v1.2h-7.2v-9.8h7v1.2H117v3h5v1.2h-5v3.2zm11.6 1.2l-2.1-3h-3.1v3h-1.4v-9.8h3.9c2.5 0 4.1 1.3 4.1 3.4a3.1 3.1 0 0 1-2.2 3.1l2.3 3.3zm0-6.4c0-1.4-1-2.2-2.8-2.2h-2.4v4.4h2.4c1.8 0 2.8-.8 2.8-2.2zm8-6h1.7l-2.3 1.8h-1.3zm-1.5 2.6h1.4v9.8h-1.4zm13.4 7.4h-5.2L148 230h-1.5l4.5-9.8h1.4l4.4 9.8h-1.4zm-.5-1.2l-2.1-4.8-2.2 4.8zm21 2.4v1.2h-7.1v-9.8h6.9v1.2h-5.5v3h4.9v1.2h-4.9v3.2zM186 230l-3-4-2.9 4h-1.6l3.7-5-3.5-4.8h1.6l2.8 3.8 2.7-3.8h1.5l-3.4 4.7 3.7 5.1zm4.9-4.9a4.9 4.9 0 0 1 5.2-5 5 5 0 0 1 3.8 1.5l-1 .9a3.4 3.4 0 0 0-2.7-1.2 3.8 3.8 0 1 0 0 7.6 3.4 3.4 0 0 0 2.7-1.2l1 .9a5 5 0 0 1-3.8 1.5 4.9 4.9 0 0 1-5.2-5zm13.8-4.9h1.4v8.6h5.3v1.2h-6.7zm10.9 5.6v-5.6h1.4v5.5c0 2.2 1 3.2 2.7 3.2s2.8-1 2.8-3.2v-5.5h1.4v5.6c0 2.8-1.6 4.3-4.2 4.3s-4.1-1.5-4.1-4.3zm13.1 3.1l.5-1.1a4.8 4.8 0 0 0 3.2 1.1c1.7 0 2.5-.6 2.5-1.5s-6-.9-6-4.5c0-1.5 1.2-2.8 3.8-2.8a5.4 5.4 0 0 1 3.1.9l-.4 1.1a4.9 4.9 0 0 0-2.7-.8c-1.7 0-2.4.7-2.4 1.5 0 2.4 5.9.9 5.9 4.5 0 1.5-1.2 2.8-3.8 2.8a5.8 5.8 0 0 1-3.7-1.2zm12.4-8.7h1.4v9.8h-1.4zm15.6 0l-4.3 9.8H251l-4.3-9.8h1.5l3.5 8.1 3.6-8.1zm10 7.4h-5.2l-1.1 2.4H259l4.4-9.8h1.4l4.5 9.8h-1.5zm-.5-1.2l-2.1-4.8-2.1 4.8z"/></g></svg>