<svg xmlns="http://www.w3.org/2000/svg" viewBox="0 0 173 50"><path d="M30.8,0H49.9V4.8H36.4v9.6H49.5v4.8H36.4V37.1H30.8ZM67.6,14.6,65,19.1a4.6,4.6,0,0,0-1.6-.8l-1.1-.2A3.6,3.6,0,0,0,59,19.7a11.1,11.1,0,0,0-1,5.2V37.1H52.6V14H58v1.4a6.3,6.3,0,0,1,2.4-1.5,7.6,7.6,0,0,1,2.9-.5l1.9.2,2.4,1ZM90.7,30.7a15.4,15.4,0,0,1-5.3,5.2,13.1,13.1,0,0,1-6.9,1.8,12.2,12.2,0,0,1-9.1-3.4,11.4,11.4,0,0,1-3.5-8.8,11.5,11.5,0,0,1,3.5-8.7,12.5,12.5,0,0,1,9-3.4q6.1,0,9.3,3.9a14.4,14.4,0,0,1,3,9.5H71.6a7,7,0,0,0,2.2,4.7,7.2,7.2,0,0,0,4.8,1.7,7.9,7.9,0,0,0,4-.9,15.6,15.6,0,0,0,3.6-3.9l4.5,2.3Zm-5.8-8.1a5.7,5.7,0,0,0-2.4-3.4,7.1,7.1,0,0,0-4.1-1.3,7.3,7.3,0,0,0-4,1.3A6.3,6.3,0,0,0,72,22.6ZM117.7,14,98.9,50H92.8l8.3-15.2L89.4,14h6.2L104,29.2,111.6,14Zm24.5,23.1h-5.5V34.8a10.9,10.9,0,0,1-7.9,2.9,11.8,11.8,0,0,1-8.9-3.5,12.2,12.2,0,0,1-3.5-9,11.2,11.2,0,0,1,3.5-8.4,12.7,12.7,0,0,1,9-3.4,13.2,13.2,0,0,1,4.2.7,11.3,11.3,0,0,1,3.6,2.2V14h5.5Zm-5.1-11.8a7.2,7.2,0,0,0-2.2-5.3,7.5,7.5,0,0,0-5.5-2.1,6.9,6.9,0,0,0-5.3,2.2,7.2,7.2,0,0,0-2.1,5.2,8,8,0,0,0,2,5.7,7,7,0,0,0,5.4,2.2A7.3,7.3,0,0,0,135,31a7.7,7.7,0,0,0,2.1-5.7Z" fill="#bd2585"/></svg>