<svg xmlns="http://www.w3.org/2000/svg" viewBox="0 0 173 50"><path d="M132.4,19.5a6,6,0,0,0-2.4-4.9,8.4,8.4,0,0,0-5.7-2.1,9.2,9.2,0,0,0-5.9,2,11.4,11.4,0,0,0-1.5,1.7,7.5,7.5,0,0,0-1.5-1.6,8.4,8.4,0,0,0-5.7-2.1,9.2,9.2,0,0,0-5.9,2,6.8,6.8,0,0,0-2.5,5.1h0V36.7h1.9v-17h0a5,5,0,0,1,2-3.9,6.4,6.4,0,0,1,4.5-1.6,6.5,6.5,0,0,1,4.4,1.6,4.8,4.8,0,0,1,1.8,3.9h0v17h1.9v-17h0a4.8,4.8,0,0,1,2-3.8,6.3,6.3,0,0,1,4.4-1.6,6.5,6.5,0,0,1,4.5,1.6,4.8,4.8,0,0,1,1.8,3.9h0v17h1.9V19.5M68.1,36.7H66.2V0h1.9V36.7M96.8,24.8a9.4,9.4,0,0,0-3.5-7.5,12.7,12.7,0,0,0-8.4-3,13.3,13.3,0,0,0-8.6,3,9.2,9.2,0,0,0-3.6,7.5,9.4,9.4,0,0,0,3.6,7.6,13.5,13.5,0,0,0,8.6,2.9,12.7,12.7,0,0,0,8.3-2.9,9.4,9.4,0,0,0,3.6-7.6m2,0a11,11,0,0,1-4.1,8.8,14.9,14.9,0,0,1-9.8,3.5A15.6,15.6,0,0,1,75,33.7a10.8,10.8,0,0,1-4.3-8.9A10.8,10.8,0,0,1,74.9,16a15.2,15.2,0,0,1,10-3.4A15,15,0,0,1,94.7,16a11.2,11.2,0,0,1,4.1,8.8M135,36.7h1.9V12.5H135V36.7m1-32.6a1.6,1.6,0,1,0,0,3.2h0a1.6,1.6,0,0,0,1.6-1.6A1.6,1.6,0,0,0,136,4.1M41.1,17.3a13.3,13.3,0,0,1,8.6-3,12.7,12.7,0,0,1,8.4,3A9.5,9.5,0,0,1,61.6,24H37.5A9.2,9.2,0,0,1,41.1,17.3ZM61.1,28A10.2,10.2,0,0,1,58,32.4a12.7,12.7,0,0,1-8.3,2.9,13.5,13.5,0,0,1-8.6-2.9,9.2,9.2,0,0,1-3.6-6.7H63.6v-.9A11,11,0,0,0,59.4,16a14.5,14.5,0,0,0-9.7-3.4A15.6,15.6,0,0,0,39.6,16a10.8,10.8,0,0,0-4.2,8.8,10.9,10.9,0,0,0,4.4,8.9,15.6,15.6,0,0,0,9.9,3.4,14.9,14.9,0,0,0,9.8-3.5A11.3,11.3,0,0,0,63.2,28H61.1" fill="#c38771"/></svg>